<?xml version="1.0" standalone="no"?>
<!DOCTYPE svg PUBLIC "-//W3C//DTD SVG 20010904//EN"
 "http://www.w3.org/TR/2001/REC-SVG-20010904/DTD/svg10.dtd">
<svg version="1.0" xmlns="http://www.w3.org/2000/svg"
 width="565.000000pt" height="565.000000pt" viewBox="0 0 565.000000 565.000000"
 preserveAspectRatio="xMidYMid meet">
<metadata>
Created by potrace 1.16, written by Peter Selinger 2001-2019
</metadata>
<g transform="translate(0.000000,565.000000) scale(0.100000,-0.100000)"
fill="#255989" stroke="none">
<path d="M24 3977 c10 -99 24 -141 58 -174 l29 -28 427 -5 c371 -4 427 -7 427
-20 0 -23 -67 -28 -393 -29 -162 0 -298 -4 -304 -7 -6 -4 -8 -27 -5 -58 5 -38
13 -57 33 -74 l27 -24 409 8 408 7 0 -32 0 -31 -320 0 -320 0 0 -22 c1 -31 33
-99 55 -118 16 -13 74 -15 412 -12 l393 3 0 -26 0 -25 -320 0 -320 0 0 -28 c0
-35 46 -129 68 -141 10 -5 145 -11 302 -14 l285 -5 25 -33 c50 -66 214 -265
249 -301 l35 -38 1107 0 1107 0 43 58 c24 31 46 59 49 62 11 10 132 176 158
217 15 23 36 44 47 47 11 3 142 3 290 1 256 -5 272 -4 302 15 36 21 78 80 88
123 l7 27 -341 0 -342 0 5 28 c2 15 5 31 5 36 1 5 158 6 387 2 l386 -7 38 25
c35 23 70 77 70 108 0 11 -51 12 -285 9 -329 -4 -355 -1 -355 34 l0 25 358 0
c424 0 453 3 492 41 26 27 58 95 48 104 -2 3 -158 7 -347 11 l-342 7 3 26 3
26 405 5 c452 6 420 0 482 81 32 43 79 172 66 184 -2 3 -20 0 -39 -5 -131 -39
-457 -60 -999 -66 -474 -5 -487 -6 -572 -29 -172 -48 -304 -135 -401 -265 -59
-79 -86 -131 -122 -235 -15 -44 -29 -82 -31 -84 -2 -2 -21 -7 -41 -10 l-38 -6
-3 -98 c-3 -95 -3 -97 -27 -97 -13 0 -27 5 -31 11 -3 6 -17 70 -31 143 -33
181 -81 373 -106 421 -11 22 -45 65 -76 95 -161 157 -391 193 -681 107 -33 -9
-46 -19 -48 -34 -2 -16 -13 -22 -45 -27 -67 -10 -144 -51 -167 -88 -20 -33
-27 -125 -14 -175 l6 -23 20 25 c25 32 77 46 122 34 68 -19 141 -136 152 -245
5 -52 2 -66 -23 -114 -36 -71 -95 -112 -168 -118 l-52 -4 -6 47 c-4 26 -7 70
-7 96 0 49 0 49 -34 49 -34 0 -34 1 -72 98 -52 135 -95 209 -166 286 -103 114
-209 174 -354 201 -45 9 -252 20 -560 29 -672 22 -751 28 -948 75 l-38 9 6
-71z m2767 -156 c21 -22 29 -39 29 -66 0 -27 -8 -44 -29 -66 -54 -54 -118 -30
-145 53 -9 28 14 77 43 93 40 22 70 18 102 -14z"/>
<path d="M1767 2703 c-4 -3 -7 -73 -7 -155 l0 -149 28 3 c26 3 27 6 30 66 3
53 6 62 22 62 35 0 50 -12 86 -71 30 -50 40 -59 65 -59 16 0 29 4 29 8 0 4
-16 32 -35 62 -19 30 -35 58 -35 63 0 4 9 16 20 27 42 42 32 122 -17 141 -28
10 -176 12 -186 2z"/>
<path d="M2052 2558 l3 -153 108 -3 108 -3 -3 28 c-3 27 -5 28 -63 30 -33 1
-68 2 -77 2 -14 1 -18 10 -18 35 0 41 9 45 75 39 39 -4 54 -2 64 11 27 32 6
46 -69 46 l-70 0 0 29 c0 33 17 41 98 41 49 0 52 2 52 25 l0 25 -105 0 -106 0
3 -152z"/>
<path d="M2320 2592 c0 -94 3 -122 17 -142 28 -40 45 -49 95 -50 39 0 54 5 80
29 l33 29 3 127 4 126 -29 -3 -28 -3 0 -100 c0 -55 -4 -110 -8 -122 -9 -26
-39 -37 -72 -29 -33 8 -49 70 -40 153 8 79 1 103 -31 103 l-24 0 0 -118z"/>
<path d="M2610 2554 l0 -155 23 3 c21 3 22 9 27 98 l5 95 63 -98 c52 -81 67
-98 85 -95 21 3 22 7 25 156 l3 152 -25 0 c-31 0 -39 -22 -35 -103 2 -35 -1
-63 -6 -65 -6 -2 -34 35 -63 82 -43 70 -58 86 -78 86 l-24 0 0 -156z"/>
<path d="M2900 2555 l0 -155 25 0 c25 0 25 1 25 78 0 44 3 113 6 155 l7 77
-32 0 -31 0 0 -155z"/>
<path d="M3016 2694 c-9 -24 -7 -267 3 -283 5 -8 16 -11 30 -6 19 6 21 14 22
88 l1 82 30 -87 c22 -67 34 -88 48 -88 24 0 32 13 60 100 l25 75 3 -88 c3 -85
4 -88 25 -85 21 3 22 7 25 156 l3 153 -33 -3 c-32 -3 -34 -5 -67 -108 -34
-104 -34 -105 -47 -75 -7 17 -20 59 -30 95 -9 36 -22 71 -27 78 -14 17 -64 15
-71 -4z"/>
<path d="M3345 2650 c-4 -33 -4 -103 0 -155 l7 -96 107 3 c94 3 106 5 109 22
6 28 -15 36 -95 36 l-73 0 0 35 0 35 59 0 c75 0 91 6 91 36 0 23 -3 24 -76 24
l-75 0 3 33 c3 31 4 32 48 29 25 -2 60 0 78 3 26 5 32 11 32 30 0 25 0 25
-104 25 l-104 0 -7 -60z"/>
<path d="M3600 2702 c0 -4 18 -34 40 -67 22 -33 40 -65 40 -72 0 -7 -20 -41
-45 -76 -25 -36 -45 -70 -45 -76 0 -6 12 -11 28 -11 22 0 34 10 62 55 19 30
37 55 40 55 3 -1 21 -24 40 -53 26 -38 43 -53 63 -55 38 -5 35 12 -18 87 -25
36 -45 69 -45 75 0 6 18 36 40 67 47 68 50 81 13 77 -19 -2 -36 -16 -56 -45
-16 -24 -31 -43 -35 -43 -4 0 -20 20 -35 45 -23 37 -34 45 -58 45 -16 0 -29
-3 -29 -8z"/>
<path d="M1980 2349 c0 -8 102 -184 123 -214 14 -20 26 -20 698 -20 l683 0 64
113 c35 62 62 115 60 117 -7 7 -1628 10 -1628 4z"/>
<path d="M2138 1998 c3 -13 21 -63 41 -113 l36 -90 105 -6 c150 -9 1013 -10
1026 -1 18 11 104 197 104 224 0 4 -297 8 -659 8 l-659 0 6 -22z"/>
<path d="M2240 1683 c0 -40 30 -196 40 -213 8 -13 82 -15 517 -12 279 2 509 5
511 6 7 8 32 115 40 173 l8 60 -299 6 c-165 4 -417 7 -559 7 l-258 0 0 -27z"/>
</g>
</svg>
